<svg width="17" height="17" viewBox="0 0 17 17" fill="none"
    xmlns="http://www.w3.org/2000/svg">
    <path d="M5.16315 14.376C4.99648 14.2093 4.91315 14.012 4.91315 13.784C4.91315 13.5564 4.99648 13.3593 5.16315 13.1926L10.0465 8.30929L5.14648 3.40929C4.99092 3.25373 4.91315 3.05929 4.91315 2.82595C4.91315 2.59262 4.99648 2.39262 5.16315 2.22595C5.32981 2.05929 5.52715 1.97595 5.75515 1.97595C5.9827 1.97595 6.17981 2.05929 6.34648 2.22595L11.9465 7.84262C12.0131 7.90929 12.0605 7.98151 12.0885 8.05929C12.116 8.13706 12.1298 8.2204 12.1298 8.30929C12.1298 8.39817 12.116 8.48151 12.0885 8.55929C12.0605 8.63706 12.0131 8.70929 11.9465 8.77595L6.32981 14.3926C6.17426 14.5482 5.9827 14.626 5.75515 14.626C5.52715 14.626 5.32981 14.5426 5.16315 14.376Z" fill="#1E1E1E"/>
</svg>
