<svg width="12" height="12" viewBox="0 0 12 12" fill="none"
    xmlns="http://www.w3.org/2000/svg">
    <path d="M2.5 10V9.5C2.5 8.57174 2.86875 7.6815 3.52513 7.02513C4.1815 6.36875 5.07174 6 6 6M6 6C6.92826 6 7.8185 6.36875 8.47487 7.02513C9.13125 7.6815 9.5 8.57174 9.5 9.5V10M6 6C6.53043 6 7.03914 5.78929 7.41421 5.41421C7.78929 5.03914 8 4.53043 8 4C8 3.46957 7.78929 2.96086 7.41421 2.58579C7.03914 2.21071 6.53043 2 6 2C5.46957 2 4.96086 2.21071 4.58579 2.58579C4.21071 2.96086 4 3.46957 4 4C4 4.53043 4.21071 5.03914 4.58579 5.41421C4.96086 5.78929 5.46957 6 6 6Z" stroke="#888888" strokeLinecap="round" strokeLinejoin="round" />
</svg>