<svg width="20" height="20" viewBox="0 0 20 20" fill="none"
    xmlns="http://www.w3.org/2000/svg">
    <path d="M2.27084 17.5C1.95139 17.5 1.71528 17.3611 1.56251 17.0833C1.40973 16.8056 1.40973 16.5278 1.56251 16.25L9.27084 2.91667C9.42362 2.63889 9.66667 2.5 10 2.5C10.3333 2.5 10.5764 2.63889 10.7292 2.91667L18.4375 16.25C18.5903 16.5278 18.5903 16.8056 18.4375 17.0833C18.2847 17.3611 18.0486 17.5 17.7292 17.5H2.27084ZM10 8.33333C9.76389 8.33333 9.56612 8.41305 9.40667 8.5725C9.24667 8.7325 9.16667 8.93056 9.16667 9.16667V11.6667C9.16667 11.9028 9.24667 12.1006 9.40667 12.26C9.56612 12.42 9.76389 12.5 10 12.5C10.2361 12.5 10.4342 12.42 10.5942 12.26C10.7536 12.1006 10.8333 11.9028 10.8333 11.6667V9.16667C10.8333 8.93056 10.7536 8.7325 10.5942 8.5725C10.4342 8.41305 10.2361 8.33333 10 8.33333ZM10 15C10.2361 15 10.4342 14.92 10.5942 14.76C10.7536 14.6006 10.8333 14.4028 10.8333 14.1667C10.8333 13.9306 10.7536 13.7328 10.5942 13.5733C10.4342 13.4133 10.2361 13.3333 10 13.3333C9.76389 13.3333 9.56612 13.4133 9.40667 13.5733C9.24667 13.7328 9.16667 13.9306 9.16667 14.1667C9.16667 14.4028 9.24667 14.6006 9.40667 14.76C9.56612 14.92 9.76389 15 10 15Z" fill="#F24E1E"/>
</svg>
