<svg width="20" height="20" viewBox="0 0 20 20" fill="none"
    xmlns="http://www.w3.org/2000/svg">
    <path opacity="0.2" d="M16.25 3.75V16.875C16.25 17.0408 16.1842 17.1997 16.0669 17.3169C15.9497 17.4342 15.7908 17.5 15.625 17.5H4.375C4.20924 17.5 4.05027 17.4342 3.93306 17.3169C3.81585 17.1997 3.75 17.0408 3.75 16.875V3.75C3.75 3.58424 3.81585 3.42527 3.93306 3.30806C4.05027 3.19085 4.20924 3.125 4.375 3.125H7.5C7.09431 3.66593 6.875 4.32384 6.875 5V5.625H13.125V5C13.125 4.32384 12.9057 3.66593 12.5 3.125H15.625C15.7908 3.125 15.9497 3.19085 16.0669 3.30806C16.1842 3.42527 16.25 3.58424 16.25 3.75Z" fill="white"/>
    <path d="M13.125 11.8751C13.125 12.0409 13.0592 12.1998 12.9419 12.3171C12.8247 12.4343 12.6658 12.5001 12.5 12.5001H7.5C7.33424 12.5001 7.17527 12.4343 7.05806 12.3171C6.94085 12.1998 6.875 12.0409 6.875 11.8751C6.875 11.7094 6.94085 11.5504 7.05806 11.4332C7.17527 11.316 7.33424 11.2501 7.5 11.2501H12.5C12.6658 11.2501 12.8247 11.316 12.9419 11.4332C13.0592 11.5504 13.125 11.7094 13.125 11.8751ZM12.5 8.75012H7.5C7.33424 8.75012 7.17527 8.81597 7.05806 8.93318C6.94085 9.05039 6.875 9.20936 6.875 9.37512C6.875 9.54088 6.94085 9.69985 7.05806 9.81706C7.17527 9.93427 7.33424 10.0001 7.5 10.0001H12.5C12.6658 10.0001 12.8247 9.93427 12.9419 9.81706C13.0592 9.69985 13.125 9.54088 13.125 9.37512C13.125 9.20936 13.0592 9.05039 12.9419 8.93318C12.8247 8.81597 12.6658 8.75012 12.5 8.75012ZM16.875 3.75012V16.8751C16.875 17.2066 16.7433 17.5246 16.5089 17.759C16.2745 17.9934 15.9565 18.1251 15.625 18.1251H4.375C4.04348 18.1251 3.72554 17.9934 3.49112 17.759C3.2567 17.5246 3.125 17.2066 3.125 16.8751V3.75012C3.125 3.4186 3.2567 3.10065 3.49112 2.86623C3.72554 2.63181 4.04348 2.50012 4.375 2.50012H7.21094C7.56127 2.10664 7.9909 1.79175 8.47159 1.57612C8.95229 1.3605 9.47316 1.24902 10 1.24902C10.5268 1.24902 11.0477 1.3605 11.5284 1.57612C12.0091 1.79175 12.4387 2.10664 12.7891 2.50012H15.625C15.9565 2.50012 16.2745 2.63181 16.5089 2.86623C16.7433 3.10065 16.875 3.4186 16.875 3.75012ZM7.5 5.00012H12.5C12.5 4.33708 12.2366 3.70119 11.7678 3.23235C11.2989 2.76351 10.663 2.50012 10 2.50012C9.33696 2.50012 8.70107 2.76351 8.23223 3.23235C7.76339 3.70119 7.5 4.33708 7.5 5.00012ZM15.625 3.75012H13.5312C13.6759 4.15101 13.7499 4.57394 13.75 5.00012V5.62512C13.75 5.79088 13.6842 5.94985 13.5669 6.06706C13.4497 6.18427 13.2908 6.25012 13.125 6.25012H6.875C6.70924 6.25012 6.55027 6.18427 6.43306 6.06706C6.31585 5.94985 6.25 5.79088 6.25 5.62512V5.00012C6.25014 4.57394 6.32415 4.15101 6.46875 3.75012H4.375V16.8751H15.625V3.75012Z" fill="white"/>
</svg>
