<svg width="18" height="18" viewBox="0 0 18 18" fill="none"
    xmlns="http://www.w3.org/2000/svg">
    <circle cx="9" cy="9" r="8.5" stroke="white"/>
    <path d="M6.75833 8.49583C7.35833 9.675 8.325 10.6375 9.50417 11.2417L10.4208 10.325C10.5333 10.2125 10.7 10.175 10.8458 10.225C11.3125 10.3792 11.8167 10.4625 12.3333 10.4625C12.5625 10.4625 12.75 10.65 12.75 10.8792V12.3333C12.75 12.5625 12.5625 12.75 12.3333 12.75C8.42083 12.75 5.25 9.57917 5.25 5.66667C5.25 5.4375 5.4375 5.25 5.66667 5.25H7.125C7.35417 5.25 7.54167 5.4375 7.54167 5.66667C7.54167 6.1875 7.625 6.6875 7.77917 7.15417C7.825 7.3 7.79167 7.4625 7.675 7.57917L6.75833 8.49583Z" fill="white"/>
</svg>
