<svg width="19" height="19" viewBox="0 0 19 19" fill="none"
    xmlns="http://www.w3.org/2000/svg">
    <circle cx="9.39648" cy="9.30933" r="8.5" stroke="#1E1E1E"/>
    <path d="M7.15482 8.80516C7.75482 9.98433 8.72148 10.9468 9.90065 11.551L10.8173 10.6343C10.9298 10.5218 11.0965 10.4843 11.2423 10.5343C11.709 10.6885 12.2132 10.7718 12.7298 10.7718C12.959 10.7718 13.1465 10.9593 13.1465 11.1885V12.6427C13.1465 12.8718 12.959 13.0593 12.7298 13.0593C8.81732 13.0593 5.64648 9.88849 5.64648 5.97599C5.64648 5.74683 5.83398 5.55933 6.06315 5.55933H7.52148C7.75065 5.55933 7.93815 5.74683 7.93815 5.97599C7.93815 6.49683 8.02148 6.99683 8.17565 7.46349C8.22148 7.60933 8.18815 7.77183 8.07148 7.88849L7.15482 8.80516Z" fill="#1E1E1E"/>
</svg>
