<svg width="22" height="36" viewBox="0 0 22 36" fill="none"
    xmlns="http://www.w3.org/2000/svg">
    <g clip-path="url(#clip0_150_203)">
        <path d="M11 29.0471L4.72894 32.2945L11 36.024L17.2711 32.2945L11 29.0471Z" fill="white"/>
        <path d="M20.1265 21.2074L22 19.4008V10.3877H13.8102L11 13.0977L8.18976 10.3877H0V19.4008L1.87349 21.2074L0 23.0141V24.7046C0 27.6034 1.5241 30.296 4.03313 31.8703L10.6416 28.4487V26.9092L7.74096 25.1839L8.77711 22.5988H13.2229L14.259 25.1839L11.3584 26.9092V28.4487L17.9669 31.8703C20.4759 30.2931 22 27.6005 22 24.7046V23.0141L20.1265 21.2074ZM7.56024 20.763V22.0353L6.73494 20.5452L4.03916 19.3862C3.11747 18.9912 2.5241 18.1082 2.5241 17.1352L7.56024 18.2563V20.763ZM17.9548 19.3862L15.259 20.5452L14.4337 22.0353V18.2563L19.4699 17.1352C19.4699 18.1082 18.8765 18.9912 17.9548 19.3862Z" fill="white"/>
        <path d="M3.28311 3.16314C3.32528 3.16314 3.36745 3.15733 3.4066 3.15152L4.15962 6.51509H18.0843L18.8373 3.15152C18.8795 3.15733 18.9187 3.16314 18.9608 3.16314C19.4578 3.16314 19.8584 2.77683 19.8584 2.29756C19.8584 1.8183 19.4578 1.43198 18.9608 1.43198C18.4638 1.43198 18.0632 1.8183 18.0632 2.29756C18.0632 2.59964 18.2259 2.86687 18.4668 3.02082L16.2108 5.5217L15.4126 3.52622C15.7891 3.42166 16.0632 3.09343 16.0632 2.6984C16.0632 2.21914 15.6626 1.83282 15.1656 1.83282C14.6687 1.83282 14.268 2.21914 14.268 2.6984C14.268 2.98887 14.4187 3.24447 14.6476 3.40132L12.8193 5.5217L11.3795 1.6905C11.75 1.58302 12.0181 1.25771 12.0181 0.86558C12.0181 0.386316 11.6174 0 11.1205 0C10.6235 0 10.2229 0.386316 10.2229 0.86558C10.2229 1.25771 10.494 1.58302 10.8614 1.6905L9.42166 5.5217L7.59335 3.40132C7.82227 3.24447 7.97287 2.98887 7.97287 2.6984C7.97287 2.21914 7.57227 1.83282 7.07528 1.83282C6.57829 1.83282 6.17769 2.21914 6.17769 2.6984C6.17769 3.09343 6.4548 3.42456 6.82829 3.52622L6.0301 5.5217L3.77407 3.02082C4.01805 2.86687 4.17769 2.59964 4.17769 2.29756C4.17769 1.8183 3.77709 1.43198 3.2801 1.43198C2.78311 1.43198 2.38251 1.8183 2.38251 2.29756C2.38251 2.77683 2.78311 3.16314 3.2801 3.16314H3.28311Z" fill="white"/>
        <path d="M4.34332 7.33716L4.80115 9.38783H17.4427L17.9006 7.33716H4.34332Z" fill="white"/>
    </g>
    <defs>
        <clipPath id="clip0_150_203">
            <rect width="22" height="36" fill="white"/>
        </clipPath>
    </defs>
</svg>
