<svg width="16" height="16" viewBox="0 0 16 16" fill="none"
    xmlns="http://www.w3.org/2000/svg">
    <g clip-path="url(#clip0_23_781)">
        <path d="M0.666666 14.0001V2.00008C0.666666 1.64646 0.807142 1.30732 1.05719 1.05727C1.30724 0.807224 1.64638 0.666748 2 0.666748H14C14.3536 0.666748 14.6928 0.807224 14.9428 1.05727C15.1929 1.30732 15.3333 1.64646 15.3333 2.00008V14.0001C15.3333 14.3537 15.1929 14.6928 14.9428 14.9429C14.6928 15.1929 14.3536 15.3334 14 15.3334H2C1.64638 15.3334 1.30724 15.1929 1.05719 14.9429C0.807142 14.6928 0.666666 14.3537 0.666666 14.0001Z" stroke="#F8AA02"/>
        <path d="M10 4.66683H12.6667M10 10.3335H12.6667M10 12.3335H12.6667M3.33333 4.66683H4.66667M4.66667 4.66683H6M4.66667 4.66683V3.3335M4.66667 4.66683V6.00016M3.724 12.2762L4.66667 11.3335M4.66667 11.3335L5.61 10.3908M4.66667 11.3335L3.724 10.3908M4.66667 11.3335L5.61 12.2762" stroke="#F8AA02" stroke-linecap="round" stroke-linejoin="round"/>
    </g>
    <defs>
        <clipPath id="clip0_23_781">
            <rect width="16" height="16" fill="white"/>
        </clipPath>
    </defs>
</svg>
