<svg width="16" height="16" viewBox="0 0 16 16" fill="none"
    xmlns="http://www.w3.org/2000/svg">
    <path d="M8 8H12.6667M12.6667 8L10.6667 10M12.6667 8L10.6667 6M12.6667 4V3.33333C12.6667 2.97971 12.5262 2.64057 12.2761 2.39052C12.0261 2.14048 11.687 2 11.3333 2H4.66667C4.31304 2 3.97391 2.14048 3.72386 2.39052C3.47381 2.64057 3.33333 2.97971 3.33333 3.33333V12.6667C3.33333 13.0203 3.47381 13.3594 3.72386 13.6095C3.97391 13.8595 4.31304 14 4.66667 14H11.3333C11.687 14 12.0261 13.8595 12.2761 13.6095C12.5262 13.3594 12.6667 13.0203 12.6667 12.6667V12" stroke="#F8AA02" stroke-linecap="round" stroke-linejoin="round"/>
</svg>
