<svg width="16" height="16" viewBox="0 0 16 16" fill="none"
    xmlns="http://www.w3.org/2000/svg">
    <path d="M6 4.00008H13.3333M3.33333 5.33341V2.66675M4 9.33341H3.06666C2.96058 9.33341 2.85884 9.29127 2.78382 9.21626C2.70881 9.14124 2.66666 9.0395 2.66666 8.93341V8.40008C2.66666 8.294 2.70881 8.19225 2.78382 8.11724C2.85884 8.04222 2.96058 8.00008 3.06666 8.00008H3.6C3.70608 8.00008 3.80783 7.95794 3.88284 7.88292C3.95785 7.80791 4 7.70617 4 7.60008V7.06675C4 6.96066 3.95785 6.85892 3.88284 6.78391C3.80783 6.70889 3.70608 6.66675 3.6 6.66675H2.66666M2.66666 10.6667H3.6C3.70608 10.6667 3.80783 10.7089 3.88284 10.7839C3.95785 10.8589 4 10.9607 4 11.0667V12.9334C4 12.9859 3.98965 13.038 3.96955 13.0865C3.94945 13.135 3.91998 13.1791 3.88284 13.2163C3.8457 13.2534 3.8016 13.2829 3.75307 13.303C3.70454 13.3231 3.65253 13.3334 3.6 13.3334H2.66666M4 12.0001H2.66666M6 8.00008H13.3333M6 12.0001H13.3333" stroke="#F8AA02" stroke-linecap="round" stroke-linejoin="round"/>
</svg>
