<svg width="16" height="16" viewBox="0 0 16 16" fill="none"
    xmlns="http://www.w3.org/2000/svg">
    <path d="M7.33334 5.33203H5.33334V7.33203C5.33334 7.50884 5.2631 7.67841 5.13807 7.80344C5.01305 7.92846 4.84348 7.9987 4.66667 7.9987C4.48986 7.9987 4.32029 7.92846 4.19526 7.80344C4.07024 7.67841 4 7.50884 4 7.33203V5.33203H2C1.82319 5.33203 1.65362 5.26179 1.5286 5.13677C1.40357 5.01174 1.33334 4.84218 1.33334 4.66536C1.33334 4.48855 1.40357 4.31898 1.5286 4.19396C1.65362 4.06894 1.82319 3.9987 2 3.9987H4V1.9987C4 1.82189 4.07024 1.65232 4.19526 1.52729C4.32029 1.40227 4.48986 1.33203 4.66667 1.33203C4.84348 1.33203 5.01305 1.40227 5.13807 1.52729C5.2631 1.65232 5.33334 1.82189 5.33334 1.9987V3.9987H7.33334C7.51015 3.9987 7.67972 4.06894 7.80474 4.19396C7.92976 4.31898 8 4.48855 8 4.66536C8 4.84218 7.92976 5.01174 7.80474 5.13677C7.67972 5.26179 7.51015 5.33203 7.33334 5.33203ZM14 11.9987H10C9.82319 11.9987 9.65362 11.9285 9.5286 11.8034C9.40357 11.6784 9.33334 11.5088 9.33334 11.332C9.33334 11.1552 9.40357 10.9857 9.5286 10.8606C9.65362 10.7356 9.82319 10.6654 10 10.6654H14C14.1768 10.6654 14.3464 10.7356 14.4714 10.8606C14.5964 10.9857 14.6667 11.1552 14.6667 11.332C14.6667 11.5088 14.5964 11.6784 14.4714 11.8034C14.3464 11.9285 14.1768 11.9987 14 11.9987ZM11.862 3.13803L3.138 11.862C3.01302 11.987 2.94281 12.1566 2.94281 12.3334C2.94281 12.5101 3.01302 12.6797 3.138 12.8047L3.19534 12.862C3.32035 12.987 3.48989 13.0572 3.66667 13.0572C3.84345 13.0572 4.01298 12.987 4.138 12.862L12.862 4.13803C12.987 4.01301 13.0572 3.84347 13.0572 3.6667C13.0572 3.48992 12.987 3.32038 12.862 3.19536L12.8047 3.13803C12.6797 3.01305 12.5101 2.94284 12.3333 2.94284C12.1566 2.94284 11.987 3.01305 11.862 3.13803Z" fill="#F8AA02"/>
</svg>
