<svg width="16" height="16" viewBox="0 0 16 16" fill="none"
    xmlns="http://www.w3.org/2000/svg">
    <path d="M5.33333 6.66659H10.6667M5.33333 11.9999H10.6667M5.33333 9.33325H8M2.66666 14.2666V1.73325C2.66666 1.62717 2.70881 1.52542 2.78382 1.45041C2.85884 1.37539 2.96058 1.33325 3.06666 1.33325H10.8347C10.9407 1.33335 11.0424 1.37555 11.1173 1.45059L13.216 3.54925C13.2533 3.58652 13.2829 3.6308 13.303 3.67954C13.3232 3.72828 13.3335 3.78052 13.3333 3.83325V14.2666C13.3333 14.3191 13.323 14.3711 13.3029 14.4197C13.2828 14.4682 13.2533 14.5123 13.2162 14.5494C13.179 14.5866 13.1349 14.616 13.0864 14.6361C13.0379 14.6562 12.9859 14.6666 12.9333 14.6666H3.06666C3.01414 14.6666 2.96212 14.6562 2.91359 14.6361C2.86506 14.616 2.82096 14.5866 2.78382 14.5494C2.74668 14.5123 2.71721 14.4682 2.69711 14.4197C2.67701 14.3711 2.66666 14.3191 2.66666 14.2666Z" stroke="#F8AA02" stroke-linecap="round" stroke-linejoin="round"/>
    <path d="M10.6667 1.33325V3.59992C10.6667 3.70601 10.7088 3.80775 10.7838 3.88276C10.8588 3.95778 10.9606 3.99992 11.0667 3.99992H13.3333" stroke="#F8AA02" stroke-linecap="round" stroke-linejoin="round"/>
</svg>
