<svg width="16" height="16" viewBox="0 0 16 16" fill="none"
    xmlns="http://www.w3.org/2000/svg">
    <path d="M4.66667 5.3335L8 7.3335L11.3333 5.3335" stroke="#F8AA02" stroke-linecap="round" stroke-linejoin="round"/>
    <path d="M6.66667 13.3334H2.66667C2.31304 13.3334 1.97391 13.1929 1.72386 12.9429C1.47381 12.6928 1.33333 12.3537 1.33333 12.0001V4.00008C1.33333 3.64646 1.47381 3.30732 1.72386 3.05727C1.97391 2.80722 2.31304 2.66675 2.66667 2.66675H13.3333C13.687 2.66675 14.0261 2.80722 14.2761 3.05727C14.5262 3.30732 14.6667 3.64646 14.6667 4.00008V8.57142" stroke="#F8AA02" stroke-linecap="round"/>
    <path d="M14.6667 11.4075H10.4667C8.06667 11.4075 8.06667 14.6668 10.4667 14.6668M14.6667 11.4075L12.5667 9.3335M14.6667 11.4075L12.5667 13.4815" stroke="#F8AA02" stroke-linecap="round" stroke-linejoin="round"/>
</svg>
