<svg width="16" height="16" viewBox="0 0 16 16" fill="none"
    xmlns="http://www.w3.org/2000/svg">
    <path d="M2.33333 5.33338C2.33347 4.70133 2.49698 4.08004 2.80801 3.5298C3.11904 2.97957 3.56703 2.51908 4.10849 2.19303C4.64996 1.86697 5.26651 1.68642 5.89832 1.66889C6.53014 1.65136 7.15576 1.79746 7.71446 2.093C8.27317 2.38853 8.74599 2.82348 9.08705 3.35562C9.42811 3.88776 9.62581 4.49903 9.66098 5.13011C9.69616 5.76119 9.5676 6.39064 9.28779 6.95739C9.00797 7.52414 8.58641 8.00893 8.064 8.36472C9.189 8.77734 10.1648 9.51719 10.8658 10.4891C11.5667 11.4609 11.9608 12.6203 11.9973 13.818C11.9958 13.9472 11.9444 14.0707 11.8539 14.1629C11.7634 14.255 11.6408 14.3086 11.5117 14.3125C11.3826 14.3163 11.257 14.2702 11.1612 14.1836C11.0653 14.0971 11.0066 13.9769 10.9973 13.848C10.9576 12.549 10.4137 11.3165 9.48078 10.4117C8.54787 9.50682 7.2993 9.00078 5.99967 9.00078C4.70003 9.00078 3.45146 9.50682 2.51855 10.4117C1.58564 11.3165 1.0417 12.549 1.002 13.848C0.995325 13.9786 0.937785 14.1014 0.841706 14.19C0.745627 14.2786 0.618652 14.3261 0.487982 14.3223C0.357312 14.3185 0.233341 14.2636 0.142627 14.1695C0.0519136 14.0754 0.00167223 13.9494 0.00266665 13.8187C0.0390342 12.6209 0.433071 11.4613 1.13406 10.4893C1.83504 9.51733 2.81089 8.77738 3.936 8.36472C3.44189 8.02847 3.03753 7.57646 2.75818 7.0481C2.47883 6.51973 2.33298 5.93105 2.33333 5.33338ZM6 2.66672C5.29276 2.66672 4.61448 2.94767 4.11438 3.44776C3.61428 3.94786 3.33333 4.62614 3.33333 5.33338C3.33333 6.04063 3.61428 6.7189 4.11438 7.219C4.61448 7.7191 5.29276 8.00005 6 8.00005C6.70724 8.00005 7.38552 7.7191 7.88562 7.219C8.38572 6.7189 8.66667 6.04063 8.66667 5.33338C8.66667 4.62614 8.38572 3.94786 7.88562 3.44776C7.38552 2.94767 6.70724 2.66672 6 2.66672ZM11.5267 5.33338C11.428 5.33338 11.332 5.34005 11.2373 5.35338C11.1712 5.36522 11.1034 5.36362 11.038 5.34868C10.9725 5.33374 10.9107 5.30577 10.8563 5.26644C10.8019 5.22711 10.756 5.17722 10.7212 5.11974C10.6865 5.06227 10.6637 4.99839 10.6542 4.93192C10.6447 4.86545 10.6487 4.79775 10.666 4.73285C10.6832 4.66796 10.7133 4.6072 10.7546 4.5542C10.7958 4.5012 10.8473 4.45705 10.9059 4.42438C10.9646 4.39171 11.0292 4.37119 11.096 4.36405C11.759 4.26819 12.4352 4.39551 13.0179 4.726C13.6007 5.05648 14.057 5.57136 14.3151 6.1896C14.5731 6.80784 14.6183 7.49435 14.4435 8.14108C14.2687 8.78781 13.8838 9.35804 13.3493 9.76205C14.1349 10.1138 14.8019 10.6854 15.2699 11.4078C15.7379 12.1302 15.9868 12.9726 15.9867 13.8334C15.9867 13.966 15.934 14.0932 15.8402 14.1869C15.7465 14.2807 15.6193 14.3334 15.4867 14.3334C15.3541 14.3334 15.2269 14.2807 15.1331 14.1869C15.0393 14.0932 14.9867 13.966 14.9867 13.8334C14.9866 13.0895 14.7469 12.3654 14.3031 11.7684C13.8593 11.1714 13.235 10.7332 12.5227 10.5187L12.1667 10.4121V9.29472L12.44 9.15538C12.8452 8.95015 13.1694 8.61435 13.3602 8.20221C13.5511 7.79007 13.5974 7.32564 13.4919 6.88389C13.3863 6.44214 13.135 6.04886 12.7784 5.76753C12.4218 5.48621 11.9809 5.33326 11.5267 5.33338Z" fill="#F8AA02"/>
</svg>
