<svg width="16" height="16" viewBox="0 0 16 16" fill="none"
    xmlns="http://www.w3.org/2000/svg">
    <path d="M3.33334 13.3334V12.6667C3.33334 11.4291 3.825 10.2421 4.70017 9.36692C5.57534 8.49175 6.76233 8.00008 8 8.00008M8 8.00008C9.23768 8.00008 10.4247 8.49175 11.2998 9.36692C12.175 10.2421 12.6667 11.4291 12.6667 12.6667V13.3334M8 8.00008C8.70725 8.00008 9.38552 7.71913 9.88562 7.21903C10.3857 6.71894 10.6667 6.04066 10.6667 5.33341C10.6667 4.62617 10.3857 3.94789 9.88562 3.4478C9.38552 2.9477 8.70725 2.66675 8 2.66675C7.29276 2.66675 6.61448 2.9477 6.11438 3.4478C5.61429 3.94789 5.33334 4.62617 5.33334 5.33341C5.33334 6.04066 5.61429 6.71894 6.11438 7.21903C6.61448 7.71913 7.29276 8.00008 8 8.00008Z" stroke="#F8AA02" stroke-linecap="round" stroke-linejoin="round"/>
</svg>
