<svg width="25" height="24" viewBox="0 0 25 24" fill="none"
    xmlns="http://www.w3.org/2000/svg">
    <path d="M21.1644 12C21.1644 12.1989 21.0848 12.3896 20.943 12.5303C20.8013 12.671 20.609 12.75 20.4085 12.75H5.60294L11.1208 18.2156C11.2627 18.3578 11.3424 18.5498 11.3424 18.75C11.3424 18.9501 11.2627 19.1422 11.1208 19.2843C10.9763 19.423 10.7832 19.5004 10.5822 19.5004C10.3813 19.5004 10.1882 19.423 10.0437 19.2843L3.24085 12.5343C3.09891 12.3922 3.01929 12.2001 3.01929 12C3.01929 11.7998 3.09891 11.6078 3.24085 11.4656L10.0437 4.7156C10.1905 4.596 10.377 4.53488 10.5667 4.54413C10.7565 4.55338 10.936 4.63233 11.0704 4.76563C11.2047 4.89893 11.2843 5.07705 11.2936 5.26534C11.3029 5.45363 11.2413 5.63862 11.1208 5.78435L5.60294 11.25H20.4085C20.609 11.25 20.8013 11.329 20.943 11.4696C21.0848 11.6103 21.1644 11.8011 21.1644 12Z" fill="white"/>
</svg>
