<svg width="25" height="24" viewBox="0 0 25 24" fill="none"
    xmlns="http://www.w3.org/2000/svg">
    <path d="M18.1974 8.62257L15.4205 11.378L18.1974 14.1334C18.5602 14.4934 18.5602 15.0891 18.1974 15.4491C18.0098 15.6353 17.7721 15.7221 17.5345 15.7221C17.2968 15.7221 17.0591 15.6353 16.8715 15.4491L14.0945 12.6937L11.3175 15.4491C11.1299 15.6353 10.8922 15.7221 10.6545 15.7221C10.4169 15.7221 10.1792 15.6353 9.99155 15.4491C9.81708 15.2739 9.71923 15.0375 9.71923 14.7913C9.71923 14.545 9.81708 14.3086 9.99155 14.1334L12.7685 11.378L9.99155 8.62257C9.62879 8.26262 9.62879 7.66686 9.99155 7.30691C10.3543 6.94697 10.9547 6.94697 11.3175 7.30691L14.0945 10.0623L16.8715 7.30691C17.2343 6.94697 17.8347 6.94697 18.1974 7.30691C18.5602 7.66686 18.5602 8.26262 18.1974 8.62257ZM23.3136 5.17207V17.5839C23.3136 18.7755 22.3379 19.756 21.1246 19.756H6.20133C5.43828 19.756 4.75029 19.3712 4.35 18.7382L0.234544 12.1972C-0.0781812 11.7007 -0.0781812 11.0553 0.234544 10.5464L4.35 4.01777C4.75029 3.38477 5.45079 3 6.20133 3H21.1371C22.3379 3 23.3261 3.98054 23.3261 5.17207H23.3136ZM21.4373 5.17207C21.4373 4.99831 21.2997 4.86178 21.1246 4.86178H6.20133C6.08875 4.86178 5.98868 4.91142 5.93864 5.01072L1.92326 11.378L5.93864 17.7453C6.00119 17.8322 6.10126 17.8942 6.20133 17.8942H21.1371C21.3122 17.8942 21.4498 17.7577 21.4498 17.5839V5.17207H21.4373Z" fill="white"/>
</svg>
