<svg width="20" height="20" viewBox="0 0 20 20" fill="none"
    xmlns="http://www.w3.org/2000/svg">
    <path opacity="0.2" d="M16.875 6.25H2.5V15.625C2.5 15.7908 2.56585 15.9497 2.68306 16.0669C2.80027 16.1842 2.95924 16.25 3.125 16.25H16.875C17.0408 16.25 17.1997 16.1842 17.3169 16.0669C17.4342 15.9497 17.5 15.7908 17.5 15.625V6.875C17.5 6.70924 17.4342 6.55027 17.3169 6.43306C17.1997 6.31585 17.0408 6.25 16.875 6.25ZM12.5 13.75C12.0055 13.75 11.5222 13.6034 11.1111 13.3287C10.7 13.054 10.3795 12.6635 10.1903 12.2067C10.0011 11.7499 9.95157 11.2472 10.048 10.7623C10.1445 10.2773 10.3826 9.83186 10.7322 9.48223C11.0819 9.1326 11.5273 8.8945 12.0123 8.79804C12.4972 8.70157 12.9999 8.75108 13.4567 8.9403C13.9135 9.12952 14.304 9.44995 14.5787 9.86107C14.8534 10.2722 15 10.7555 15 11.25C15 11.913 14.7366 12.5489 14.2678 13.0178C13.7989 13.4866 13.163 13.75 12.5 13.75Z" fill="white"/>
    <path d="M16.875 5.6249H6.75781L15.1797 3.10146C15.2587 3.07786 15.3323 3.03894 15.3962 2.9869C15.4602 2.93487 15.5133 2.87075 15.5524 2.79821C15.5916 2.72566 15.6161 2.64611 15.6245 2.56409C15.633 2.48208 15.6252 2.39921 15.6016 2.32021C15.578 2.24121 15.539 2.16763 15.487 2.10368C15.435 2.03972 15.3709 1.98664 15.2983 1.94747C15.2258 1.90829 15.1462 1.88379 15.0642 1.87536C14.9822 1.86693 14.8993 1.87474 14.8203 1.89833L2.32031 5.64833L2.26562 5.67177H2.25781L2.21875 5.69521H2.1875C2.12448 5.72806 2.06869 5.77322 2.02344 5.82802C2.02344 5.83009 2.02261 5.83208 2.02115 5.83355C2.01968 5.83501 2.0177 5.83583 2.01562 5.83583C2.00781 5.84365 2.00781 5.85146 2 5.86708L1.98437 5.88271C1.97985 5.88672 1.97706 5.89231 1.97656 5.89833C1.93944 5.95278 1.91294 6.01374 1.89844 6.07802C1.89062 6.08583 1.89063 6.09365 1.89063 6.10927H1.88281C1.88348 6.12782 1.88083 6.14634 1.875 6.16396V15.6249C1.875 15.9564 2.0067 16.2744 2.24112 16.5088C2.47554 16.7432 2.79348 16.8749 3.125 16.8749H16.875C17.2065 16.8749 17.5245 16.7432 17.7589 16.5088C17.9933 16.2744 18.125 15.9564 18.125 15.6249V6.8749C18.125 6.54338 17.9933 6.22543 17.7589 5.99101C17.5245 5.75659 17.2065 5.6249 16.875 5.6249ZM16.875 15.6249H3.125V6.8749H16.875V15.6249ZM12.5 8.1249C11.8819 8.1249 11.2777 8.30817 10.7638 8.65155C10.2499 8.99493 9.8494 9.48299 9.61288 10.054C9.37635 10.625 9.31447 11.2534 9.43505 11.8596C9.55562 12.4657 9.85325 13.0226 10.2903 13.4596C10.7273 13.8966 11.2842 14.1943 11.8903 14.3148C12.4965 14.4354 13.1249 14.3735 13.6959 14.137C14.2669 13.9005 14.755 13.5 15.0983 12.9861C15.4417 12.4721 15.625 11.868 15.625 11.2499C15.625 10.4211 15.2958 9.62624 14.7097 9.04019C14.1237 8.45414 13.3288 8.1249 12.5 8.1249ZM12.5 13.1249C12.1292 13.1249 11.7666 13.0149 11.4583 12.8089C11.15 12.6029 10.9096 12.31 10.7677 11.9674C10.6258 11.6248 10.5887 11.2478 10.661 10.8841C10.7334 10.5204 10.912 10.1863 11.1742 9.92407C11.4364 9.66185 11.7705 9.48327 12.1342 9.41092C12.4979 9.33858 12.8749 9.37571 13.2175 9.51762C13.5601 9.65954 13.853 9.89986 14.059 10.2082C14.265 10.5165 14.375 10.8791 14.375 11.2499C14.3729 11.7465 14.1747 12.2223 13.8236 12.5734C13.4724 12.9246 12.9966 13.1228 12.5 13.1249ZM8.125 8.7499C8.125 8.91566 8.05915 9.07463 7.94194 9.19184C7.82473 9.30905 7.66576 9.3749 7.5 9.3749H5C4.83424 9.3749 4.67527 9.30905 4.55806 9.19184C4.44085 9.07463 4.375 8.91566 4.375 8.7499C4.375 8.58414 4.44085 8.42516 4.55806 8.30795C4.67527 8.19074 4.83424 8.1249 5 8.1249H7.5C7.66576 8.1249 7.82473 8.19074 7.94194 8.30795C8.05915 8.42516 8.125 8.58414 8.125 8.7499ZM8.125 11.2499C8.125 11.4157 8.05915 11.5746 7.94194 11.6918C7.82473 11.809 7.66576 11.8749 7.5 11.8749H5C4.83424 11.8749 4.67527 11.809 4.55806 11.6918C4.44085 11.5746 4.375 11.4157 4.375 11.2499C4.375 11.0841 4.44085 10.9252 4.55806 10.808C4.67527 10.6907 4.83424 10.6249 5 10.6249H7.5C7.66576 10.6249 7.82473 10.6907 7.94194 10.808C8.05915 10.9252 8.125 11.0841 8.125 11.2499ZM8.125 13.7499C8.125 13.9157 8.05915 14.0746 7.94194 14.1918C7.82473 14.309 7.66576 14.3749 7.5 14.3749H5C4.83424 14.3749 4.67527 14.309 4.55806 14.1918C4.44085 14.0746 4.375 13.9157 4.375 13.7499C4.375 13.5841 4.44085 13.4252 4.55806 13.308C4.67527 13.1907 4.83424 13.1249 5 13.1249H7.5C7.66576 13.1249 7.82473 13.1907 7.94194 13.308C8.05915 13.4252 8.125 13.5841 8.125 13.7499Z" fill="white"/>
</svg>
