<svg width="18" height="18" viewBox="0 0 18 18" fill="none"
    xmlns="http://www.w3.org/2000/svg">
    <path opacity="0.2" d="M9 11.25C11.4853 11.25 13.5 9.23528 13.5 6.75C13.5 4.26472 11.4853 2.25 9 2.25C6.51472 2.25 4.5 4.26472 4.5 6.75C4.5 9.23528 6.51472 11.25 9 11.25Z" fill="white"/>
    <path d="M16.3055 14.9064C15.2559 13.0983 13.5759 11.7413 11.5875 11.0954C12.5406 10.5287 13.2812 9.6647 13.6956 8.63621C14.11 7.60772 14.1753 6.4716 13.8814 5.40241C13.5876 4.33321 12.9508 3.39008 12.0689 2.71789C11.187 2.0457 10.1088 1.68164 8.99999 1.68164C7.89114 1.68164 6.81296 2.0457 5.93108 2.71789C5.0492 3.39008 4.41241 4.33321 4.11853 5.40241C3.82465 6.4716 3.88993 7.60772 4.30435 8.63621C4.71878 9.6647 5.45942 10.5287 6.41249 11.0954C4.42412 11.7413 2.7441 13.0983 1.69452 14.9064C1.6505 14.9702 1.62016 15.0425 1.60541 15.1187C1.59067 15.1948 1.59183 15.2732 1.60883 15.3489C1.62583 15.4246 1.6583 15.4959 1.7042 15.5585C1.7501 15.621 1.80844 15.6733 1.87554 15.7122C1.94265 15.7512 2.01708 15.7758 2.09415 15.7845C2.17123 15.7933 2.24928 15.786 2.3234 15.7631C2.39753 15.7403 2.46612 15.7023 2.52488 15.6517C2.58364 15.6011 2.63129 15.5388 2.66483 15.4689C3.30776 14.3579 4.23152 13.4356 5.34346 12.7943C6.4554 12.1531 7.71641 11.8156 8.99999 11.8156C10.2836 11.8156 11.5446 12.1531 12.6565 12.7943C13.7685 13.4356 14.6922 14.3579 15.3351 15.4689C15.3687 15.5388 15.4163 15.6011 15.4751 15.6517C15.5339 15.7023 15.6025 15.7403 15.6766 15.7631C15.7507 15.786 15.8288 15.7933 15.9058 15.7845C15.9829 15.7758 16.0573 15.7512 16.1244 15.7122C16.1915 15.6733 16.2499 15.621 16.2958 15.5585C16.3417 15.4959 16.3741 15.4246 16.3911 15.3489C16.4081 15.2732 16.4093 15.1948 16.3946 15.1187C16.3798 15.0425 16.3495 14.9702 16.3055 14.9064ZM5.06249 6.75012C5.06249 5.97136 5.29342 5.21008 5.72608 4.56256C6.15873 3.91504 6.77369 3.41037 7.49317 3.11235C8.21266 2.81433 9.00436 2.73635 9.76816 2.88828C10.532 3.04021 11.2336 3.41522 11.7842 3.96589C12.3349 4.51656 12.7099 5.21815 12.8618 5.98195C13.0138 6.74575 12.9358 7.53745 12.6378 8.25694C12.3397 8.97642 11.8351 9.59137 11.1875 10.024C10.54 10.4567 9.77875 10.6876 8.99999 10.6876C7.9557 10.6876 6.95418 10.2728 6.21576 9.53435C5.47733 8.79593 5.06249 7.79441 5.06249 6.75012Z" fill="white"/>
</svg>
